<svg id="Capa_1" enable-background="new 0 0 512 512" height="512" viewBox="0 0 512 512" width="512" xmlns="http://www.w3.org/2000/svg"><g><g><path d="m438.076 295.099-199.699 36.57-110.999-24.68-53.45-11.89c-39.15-39.16-20.44-79.81-4.48-113.729 15.96-33.92 5.98-83.8 5.98-83.8s49.88 37.91 49.88 85.789c0 22.71 11.66 33.75 23.93 33.97 13.61.27 27.95-12.78 27.95-37.96 0-47.89-12.83-117.139 41.9-171.869 0 0-13.97 50.16 21.95 86.08 35.91 35.91 75.82 45.89 67.84 95.769-5.13 32.04 18.57 45.97 39.34 42.31.84-.15 1.68-.33 2.51-.53.03-.01.05-.02.08-.02 10.54-2.64 19.95-9.93 23.91-21.81 11.97-35.91-55.19-98.4-27.93-167.599 0 0 17.95 51.88 63.84 65.84 45.898 13.97 99.508 106.469 27.448 187.559z" fill="#fe646f"/><g fill="#fd4755"><path d="m350.807 231.109c10.54-2.64 19.95-9.93 23.91-21.81 11.97-35.91-55.19-98.4-27.93-167.599 0 43.89 35.25 95.77 60.52 121.039 24.919 24.93 4.569 55.03-56.5 68.37z"/><path d="m149.238 217.329c13.61.27 27.95-12.78 27.95-37.96 0-47.89-12.83-117.139 41.9-171.869-35 35-7.32 132.629-.66 167.219 6.649 34.58-26.61 49.21-69.19 42.61z"/><path d="m127.378 306.989-53.45-11.89c-39.15-39.16-20.44-79.81-4.48-113.729 15.96-33.92 5.98-83.8 5.98-83.8 49.03 84.329-8.71 168.759 51.95 209.419z"/></g><path d="m438.073 295.094h-364.146c-24.514 0-44.386 19.872-44.386 44.386v120.631c0 24.514 19.872 44.386 44.386 44.386h364.146c24.514 0 44.386-19.872 44.386-44.386v-120.631c0-24.513-19.872-44.386-44.386-44.386z" fill="#ffe177"/><path d="m106.84 504.5h-32.91c-24.52 0-44.39-19.87-44.39-44.39v-120.63c0-24.51 19.87-44.38 44.39-44.38h32.91c-24.51 0-44.38 19.87-44.38 44.38v120.63c.001 24.52 19.87 44.39 44.38 44.39z" fill="#ffd15b"/><path d="m308 7.5c16.405 45.669-16.849 54.093-3.99 100.205 0 0-30.15-12.971-30.15-39.905 0-34.583 25.716-33.253 34.14-60.3z" fill="#fe646f"/></g><g><path d="m452.281 289.585c18.804-24.905 28.609-52.714 28.487-81.132-.116-27.068-9.176-53.918-25.508-75.604-2.491-3.308-7.192-3.971-10.503-1.479-3.309 2.492-3.971 7.194-1.479 10.503 25.199 33.46 37.726 91.39-8.622 145.718h-357.549c-4.641-4.942-8.46-10.071-11.369-15.278-2.021-3.616-6.59-4.911-10.206-2.889-3.616 2.02-4.91 6.589-2.889 10.206 1.907 3.414 4.131 6.78 6.637 10.081-21.498 6.34-37.239 26.246-37.239 49.77v120.63c0 28.612 23.278 51.89 51.89 51.89h296.729c4.143 0 7.5-3.358 7.5-7.5s-3.357-7.5-7.5-7.5h-296.729c-20.341 0-36.89-16.549-36.89-36.89v-120.631c0-20.341 16.549-36.89 36.89-36.89h364.139c20.341 0 36.89 16.549 36.89 36.89v120.63c0 20.341-16.549 36.89-36.89 36.89h-32.41c-4.143 0-7.5 3.358-7.5 7.5s3.357 7.5 7.5 7.5h32.41c28.612 0 51.89-23.278 51.89-51.89v-120.63c-.001-23.684-15.956-43.698-37.679-49.895z"/><path d="m335.186 343.516c-1.562-3.796-5.222-6.248-9.326-6.248-.003 0-.006 0-.01 0-4.107.003-7.768 2.463-9.323 6.266-.023.057-.046.113-.067.17l-42.804 112.386c-1.475 3.871.469 8.204 4.34 9.678 3.864 1.474 8.203-.468 9.678-4.339l8.821-23.16h58.421l8.732 23.138c1.133 3.003 3.987 4.854 7.018 4.854.88 0 1.775-.156 2.647-.485 3.875-1.462 5.831-5.79 4.368-9.665l-42.414-112.391c-.026-.068-.053-.136-.081-.204zm-32.979 79.754 23.632-62.048 23.416 62.048z"/><path d="m437.381 466.164c4.142-.023 7.481-3.4 7.458-7.542-.023-4.128-3.377-7.458-7.499-7.458-.015 0-.028 0-.043 0-9.767.055-23.947.11-32.374.094v-106.49c0-4.142-3.357-7.5-7.5-7.5s-7.5 3.358-7.5 7.5v113.896c0 3.652 2.631 6.774 6.23 7.392.541.093 1.213.209 13.442.209 6.016 0 14.826-.029 27.786-.101z"/><path d="m84.66 337.268c-4.142 0-7.5 3.358-7.5 7.5v113.992c0 4.142 3.358 7.5 7.5 7.5s7.5-3.358 7.5-7.5v-45.406l52.659 50.804c1.456 1.404 3.332 2.103 5.207 2.103 1.964 0 3.927-.767 5.398-2.292 2.876-2.981 2.791-7.729-.19-10.605l-55.987-54.014 51.808-47.621c3.049-2.803 3.249-7.547.446-10.597-2.803-3.049-7.547-3.249-10.598-.446l-48.743 44.803v-40.721c0-4.142-3.358-7.5-7.5-7.5z"/><path d="m217.864 466.26c14.019 0 26.561-4.57 36.27-13.217 1.903-1.695 3.714-3.563 5.383-5.553 2.662-3.173 2.248-7.904-.926-10.566-3.173-2.663-7.904-2.248-10.566.925-1.205 1.435-2.506 2.779-3.868 3.992-7.018 6.25-15.864 9.418-26.293 9.418-27.292 0-49.496-22.204-49.496-49.496s22.204-49.496 49.496-49.496c9.919 0 19.487 2.921 27.668 8.449 3.433 2.319 8.095 1.416 10.414-2.016 2.318-3.433 1.416-8.095-2.016-10.414-10.671-7.208-23.142-11.019-36.066-11.019-35.563 0-64.496 28.933-64.496 64.496s28.933 64.497 64.496 64.497z"/><path d="m50.677 250.67h.014c4.135 0 7.492-3.349 7.499-7.486.038-20.365 9.605-40.688 18.046-58.62 10.259-21.803 10.598-49.126 9.205-67.608 13.779 14.377 32.369 38.878 32.369 66.405 0 12.374 3.169 22.852 9.166 30.301 5.805 7.212 13.851 11.184 22.657 11.184 9.236 0 18.219-4.517 24.646-12.393 6.811-8.345 10.411-19.785 10.411-33.082 0-7.425-.298-15.227-.613-23.486-1.454-38.107-3.215-84.265 24.778-124.555.042 19.162 4.953 45.627 26.881 67.555 10.144 10.144 20.68 18.352 29.976 25.593 24.599 19.162 40.85 31.821 35.751 63.689-4.891 30.568 12.925 46.202 29.667 50.303 9.965 2.44 20.518 1.362 29.714-3.036 10.027-4.797 17.481-13.236 20.99-23.761 5.813-17.445-3.105-37.867-13.434-61.514-11.561-26.47-24.408-55.886-19.707-86.93 10.013 17.528 28.954 42.119 59.753 51.489 3.695 1.124 7.536 2.886 11.414 5.237 3.542 2.147 8.154 1.018 10.302-2.524s1.018-8.154-2.524-10.302c-4.947-3-9.936-5.275-14.826-6.762-41.577-12.648-58.779-60.645-58.945-61.118-1.026-2.966-3.792-4.979-6.93-5.045-3.146-.072-5.985 1.829-7.136 4.75-17.229 43.753.56 84.482 14.853 117.209 9.091 20.813 16.941 38.788 12.949 50.767-5.011 15.03-20.697 19.962-32.905 16.97-14.317-3.507-21.205-15.979-18.423-33.364 6.498-40.623-15.673-57.894-41.346-77.892-9.391-7.315-19.1-14.878-28.587-24.366-32.276-32.276-20.15-78.319-20.028-78.764.915-3.283-.5-6.77-3.443-8.489-2.944-1.719-6.675-1.236-9.085 1.173-48.725 48.724-46.492 107.24-44.699 154.258.31 8.113.602 15.776.602 22.915 0 20.007-10.09 30.475-20.057 30.475-4.235 0-8.029-1.933-10.972-5.589-3.828-4.755-5.851-11.981-5.851-20.896 0-21.309-9.199-43.978-26.602-65.558-12.893-15.99-25.699-25.794-26.238-26.203-2.48-1.886-5.87-2.038-8.513-.387-2.643 1.652-3.988 4.768-3.38 7.825.094.476 9.284 47.909-5.411 79.139-8.657 18.389-19.431 41.275-19.475 64.98-.007 4.142 3.345 7.506 7.487 7.513z"/><path d="m301.046 114.596c.954.41 1.962.61 2.963.61 1.782 0 3.544-.636 4.936-1.853 2.174-1.9 3.064-4.88 2.289-7.662-5.623-20.165-1.53-32.072 2.803-44.678 4.849-14.106 10.344-30.095 1.021-56.048-1.09-3.034-3.965-5.062-7.22-4.962-3.223.069-6.041 2.19-7 5.268-3.007 9.656-8.499 14.856-14.857 20.877-9.197 8.709-19.622 18.58-19.622 41.654 0 31.509 33.271 46.185 34.687 46.794zm-4.751-77.556c2.86-2.708 5.878-5.566 8.729-8.942.761 10.777-2.063 18.994-5.173 28.039-3.431 9.981-7.199 20.945-6.204 35.873-.021-.019-.042-.037-.062-.056-8.112-7.223-12.226-15.35-12.226-24.153 0-16.619 6.591-22.86 14.936-30.761z"/></g></g></svg>