<svg id="Layer_3" height="512" viewBox="0 0 24 24" width="512" xmlns="http://www.w3.org/2000/svg" xmlns:xlink="http://www.w3.org/1999/xlink" data-name="Layer 3"><linearGradient id="linear-gradient" gradientUnits="userSpaceOnUse" x1="1" x2="23" y1="12" y2="12"><stop offset="0" stop-color="#87f1fc"/><stop offset=".2557" stop-color="#7fd4fb"/><stop offset=".5295" stop-color="#78bcfb"/><stop offset=".7844" stop-color="#74aefa"/><stop offset="1" stop-color="#73a9fa"/></linearGradient><path d="m12 1a11 11 0 1 0 11 11 11 11 0 0 0 -11-11zm6.5 14.918a2.6362 2.6362 0 0 1 -2.6816 2.582h-7.6368a2.6362 2.6362 0 0 1 -2.6816-2.582v-5.1861a2.5579 2.5579 0 0 1 1.1133-2.0942l3.8183-2.65a2.7618 2.7618 0 0 1 3.1368 0l3.8183 2.65a2.5579 2.5579 0 0 1 1.1133 2.0942zm-1.6836-6.459-3.8184-2.65a1.7563 1.7563 0 0 0 -1.996 0l-3.8184 2.65a1.56 1.56 0 0 0 -.6836 1.2729v5.1861a1.6355 1.6355 0 0 0 1.6816 1.582h7.6368a1.6355 1.6355 0 0 0 1.6816-1.582v-5.1861a1.56 1.56 0 0 0 -.6836-1.2729zm-2.3164 7.041h-5a.5.5 0 0 1 0-1h5a.5.5 0 0 1 0 1z" fill="url(#linear-gradient)"/></svg>