<svg id="Layer_4" height="512" viewBox="0 0 16 16" width="512" xmlns="http://www.w3.org/2000/svg" xmlns:xlink="http://www.w3.org/1999/xlink" data-name="Layer 4"><linearGradient id="New_Gradient_Swatch" gradientUnits="userSpaceOnUse" x1="2.346" x2="13.654" y1="2.346" y2="13.654"><stop offset="0" stop-color="#87f1fc"/><stop offset=".2557" stop-color="#7fd4fb"/><stop offset=".5295" stop-color="#78bcfb"/><stop offset=".7844" stop-color="#74aefa"/><stop offset="1" stop-color="#73a9fa"/></linearGradient><path d="m8 0a8 8 0 1 0 8 8 8.0106 8.0106 0 0 0 -8-8zm0 3.75a2.5 2.5 0 1 1 -2.5 2.5 2.5009 2.5009 0 0 1 2.5-2.5zm4 8.5a.4951.4951 0 0 1 -.5-.5 1.498 1.498 0 0 0 -1.5-1.5h-4a1.498 1.498 0 0 0 -1.5 1.5.5.5 0 0 1 -1 0 2.5009 2.5009 0 0 1 2.5-2.5h4a2.5009 2.5009 0 0 1 2.5 2.5.4951.4951 0 0 1 -.5.5zm-5.5-6a1.5 1.5 0 1 1 1.5 1.5 1.498 1.498 0 0 1 -1.5-1.5z" fill="url(#New_Gradient_Swatch)"/></svg>